<svg xmlns="http://www.w3.org/2000/svg" width="798" height="1314" viewBox="0 0 798 1314">
<g>
<path d="M 373.00 955.25 C373.00,955.66 372.66,955.99 372.25,955.99 C371.50,955.97 370.24,952.87 358.32,921.50 C341.97,878.49 338.30,855.27 339.68,803.66 L 340.32 779.82 L 337.91 780.16 L 335.50 780.50 L 334.86 818.50 C334.51,839.40 333.72,860.10 333.11,864.50 C329.73,888.95 326.83,898.20 316.63,917.00 C312.61,924.42 308.29,933.09 307.04,936.25 C305.79,939.41 304.37,942.00 303.88,942.00 C302.58,942.00 302.82,932.33 304.53,916.50 C305.36,908.80 306.51,897.95 307.08,892.40 C307.65,886.84 308.22,857.59 308.35,827.40 C308.55,780.29 308.83,771.29 310.29,764.00 C313.08,750.10 312.59,743.91 306.07,711.24 C298.79,674.76 297.56,665.35 298.45,653.12 C299.80,634.72 302.81,622.60 309.52,608.57 C314.27,598.65 324.33,583.99 325.55,585.21 C325.83,585.50 326.92,590.63 327.97,596.62 C329.02,602.60 330.59,611.21 331.47,615.74 C333.74,627.44 342.12,657.64 348.45,677.00 C359.47,710.64 374.98,766.52 375.01,772.66 C375.01,773.67 373.64,775.64 371.95,777.02 C369.01,779.44 368.84,780.01 367.88,790.52 C367.33,796.56 365.59,810.50 364.01,821.50 C357.15,869.17 357.68,887.94 366.92,924.72 C369.40,934.63 372.99,952.61 373.00,955.25 ZM 458.20 943.27 C455.50,950.30 452.95,956.37 452.55,956.77 C450.95,958.33 453.33,942.73 457.01,927.50 C467.38,884.60 467.98,870.77 461.45,825.50 C458.94,808.07 456.00,783.93 456.00,780.71 C456.00,779.72 454.61,778.14 452.91,777.20 C449.91,775.55 449.84,775.34 450.39,770.00 C451.52,758.83 463.65,714.84 476.97,673.57 C485.20,648.10 492.85,618.11 496.08,598.66 C497.33,591.15 498.73,585.00 499.18,585.00 C500.69,585.00 508.64,596.70 513.23,605.66 C521.62,622.07 524.99,635.96 525.68,657.00 C526.20,672.98 525.39,678.84 517.04,719.50 C511.54,746.25 511.36,748.91 514.12,764.00 C516.31,775.94 516.41,778.91 516.55,830.50 C516.67,878.01 516.94,886.79 518.79,903.50 C521.71,929.99 522.27,937.58 521.47,940.08 C520.51,943.12 499.96,901.75 497.01,890.83 C491.73,871.26 490.01,852.56 490.00,814.88 C490.00,782.55 489.73,779.75 486.64,780.20 C484.59,780.49 484.55,780.84 485.02,797.00 C486.22,838.32 484.34,864.11 478.55,885.64 C476.12,894.69 467.68,918.60 458.20,943.27 ZM 350.26 347.52 C336.12,349.28 334.01,349.28 327.27,347.46 C312.61,343.51 299.44,333.51 286.75,316.68 C282.43,310.95 279.82,303.78 273.38,279.86 C272.66,277.19 277.59,272.38 286.26,267.28 C294.64,262.35 301.84,255.74 319.00,237.22 L 328.50 226.96 L 333.62 226.98 C338.15,227.00 339.69,227.64 347.12,232.60 C351.73,235.68 363.49,242.21 373.26,247.11 C383.02,252.01 392.80,257.63 394.98,259.60 C402.96,266.81 406.90,280.14 406.97,300.20 C407.04,322.36 401.78,332.88 387.62,338.95 C380.77,341.88 363.30,345.89 350.26,347.52 ZM 501.50 345.93 C495.86,348.03 483.10,349.84 482.00,348.70 C481.73,348.42 477.18,347.67 471.90,347.04 C452.71,344.76 434.19,338.97 427.90,333.29 C418.73,325.01 415.42,309.21 418.27,287.34 C420.58,269.53 423.55,263.54 433.12,257.36 C436.92,254.90 445.60,250.25 452.43,247.03 C459.25,243.82 468.58,238.72 473.16,235.72 C492.16,223.28 493.72,223.45 508.09,239.65 C521.30,254.55 529.50,261.96 539.37,267.92 C549.50,274.04 551.62,276.99 550.05,282.77 C545.67,298.84 540.72,311.54 536.59,317.28 C527.12,330.48 513.77,341.37 501.50,345.93 ZM 428.15 252.38 C424.66,254.37 421.42,256.00 420.94,256.00 C417.82,256.00 417.50,251.40 417.50,207.00 L 417.50 205.35 C417.50,165.69 417.50,158.09 421.24,154.96 C422.17,154.17 423.34,153.67 424.81,153.00 C427.39,151.84 433.38,148.89 438.11,146.44 C448.23,141.23 451.03,140.93 453.96,144.75 C457.81,149.80 469.40,159.12 478.50,164.48 C486.44,169.17 497.89,174.53 521.34,184.57 C528.49,187.63 530.53,189.75 529.49,193.04 C528.68,195.57 522.41,199.74 513.00,203.98 C504.32,207.89 491.17,215.49 484.86,220.22 C473.07,229.09 463.59,234.81 449.70,241.48 C441.34,245.49 431.64,250.40 428.15,252.38 ZM 406.50 206.17 C406.50,246.44 406.29,253.12 405.00,254.34 C403.70,255.57 400.33,254.10 379.17,243.12 C363.61,235.05 350.81,227.62 343.68,222.50 C337.39,217.98 324.92,210.58 315.04,205.50 C296.78,196.10 293.18,193.12 295.55,189.35 C296.13,188.43 304.68,184.16 314.55,179.86 C344.86,166.67 354.88,160.76 366.92,149.01 C371.35,144.68 374.93,142.00 376.27,142.00 C379.88,142.00 402.96,154.01 404.82,156.85 C406.33,159.15 406.50,164.11 406.50,206.17 ZM 226.42 299.19 C221.95,303.49 217.99,307.00 217.62,307.00 C216.17,307.00 214.93,301.25 213.85,289.55 C212.90,279.20 212.97,275.82 214.31,267.89 C216.70,253.85 220.49,241.72 226.17,230.00 C234.43,212.97 245.91,203.38 266.18,196.58 C278.18,192.55 280.04,192.86 287.92,200.25 C291.58,203.69 297.38,208.07 300.80,210.00 C311.38,215.96 318.77,220.95 319.39,222.57 C320.42,225.26 317.55,229.10 303.59,243.66 C288.37,259.52 282.89,263.55 262.93,273.51 C247.90,281.01 238.41,287.68 226.42,299.19 ZM 392.37 806.50 C390.95,813.65 389.50,820.03 389.15,820.68 C388.79,821.33 387.05,813.01 385.28,802.18 C379.35,765.93 370.52,730.91 357.00,690.02 C342.81,647.08 333.95,606.80 334.84,589.25 C335.11,583.85 338.06,585.12 346.42,594.25 C363.40,612.77 371.64,626.02 379.48,647.39 C385.09,662.71 386.85,665.92 393.31,672.70 L 397.31 676.89 L 398.16 688.20 C398.63,694.41 399.46,702.80 400.01,706.82 C401.49,717.77 401.20,746.70 399.46,762.00 C397.68,777.54 395.98,788.20 392.37,806.50 ZM 438.45 807.00 C437.55,813.33 436.41,818.93 435.91,819.45 C435.41,819.97 435.00,820.11 435.00,819.75 C435.00,819.39 433.62,812.22 431.93,803.80 C427.51,781.69 424.10,755.74 423.37,738.50 C422.81,725.14 423.77,707.24 426.43,681.70 C426.72,678.91 427.99,676.65 431.19,673.20 C437.37,666.55 439.24,663.10 443.99,649.50 C449.47,633.83 455.57,622.36 465.12,609.75 C474.83,596.93 486.21,585.48 488.42,586.33 C491.11,587.36 490.39,599.51 486.47,618.88 C481.20,645.00 477.92,657.08 466.42,692.86 C452.62,735.79 443.02,775.00 438.45,807.00 ZM 608.91 299.57 C608.30,302.83 607.50,306.06 607.12,306.74 C606.66,307.57 603.94,305.46 598.97,300.41 C586.09,287.37 577.68,281.25 562.50,273.90 C554.80,270.18 545.58,265.25 542.00,262.95 C535.14,258.55 509.04,232.67 506.34,227.61 C504.00,223.21 505.63,221.38 519.29,213.06 C526.00,208.96 534.24,203.00 537.58,199.81 C544.66,193.06 546.56,192.71 557.64,196.10 C575.75,201.65 588.35,211.39 595.68,225.52 C600.62,235.04 606.30,251.02 608.45,261.41 C610.26,270.20 610.51,290.86 608.91,299.57 ZM 472.87 584.66 C465.83,588.79 464.05,589.20 460.75,587.42 C457.13,585.47 457.17,582.83 461.06,566.97 C468.34,537.29 470.06,525.34 470.06,504.42 C470.06,474.73 475.52,460.51 490.95,450.03 C497.87,445.34 506.21,437.06 511.50,429.65 C513.70,426.57 515.86,424.03 516.30,424.02 C517.23,424.00 516.55,428.25 513.75,440.00 C512.53,445.12 511.54,453.47 511.27,461.00 C510.86,472.21 511.14,475.10 513.99,489.00 C517.47,505.93 518.66,518.12 517.55,525.48 C516.91,529.80 516.00,531.05 507.54,539.36 C498.13,548.61 494.90,553.53 491.59,563.66 C489.49,570.07 480.48,580.18 472.87,584.66 ZM 364.80 586.80 C359.09,592.51 337.21,576.19 332.04,562.37 C328.26,552.25 325.04,547.44 316.39,538.95 C310.04,532.72 307.73,529.72 306.88,526.61 C305.23,520.54 306.41,506.60 309.98,490.00 C315.03,466.52 315.02,458.31 309.91,437.83 C306.90,425.74 307.57,421.58 311.47,428.25 C314.60,433.62 326.00,444.83 334.10,450.51 C344.86,458.05 349.67,465.76 352.81,480.50 C353.39,483.25 354.10,494.73 354.39,506.00 C354.95,528.45 356.55,539.90 362.53,564.27 C366.20,579.20 366.76,584.84 364.80,586.80 ZM 427.39 623.05 C421.71,625.48 421.48,625.48 418.84,622.84 L 416.69 620.69 L 417.31 565.09 C417.71,529.32 418.33,508.13 419.04,505.66 C419.65,503.54 421.58,500.25 423.33,498.34 C426.40,494.99 427.15,494.74 444.01,491.40 L 461.50 487.94 L 463.38 490.22 C465.08,492.29 465.20,493.78 464.68,506.50 C463.89,525.83 457.18,564.23 449.92,590.95 C445.83,606.00 436.65,619.08 427.39,623.05 ZM 405.44 623.07 C403.29,625.44 402.57,625.44 397.36,623.08 C389.06,619.31 381.03,609.85 376.90,598.97 C374.16,591.76 366.47,557.09 363.45,538.34 C360.89,522.38 359.17,496.46 360.36,491.70 C360.71,490.29 361.86,488.86 362.91,488.53 C365.51,487.70 394.79,493.71 398.40,495.81 C402.85,498.41 404.84,501.90 405.95,509.05 C406.54,512.80 407.02,538.09 407.08,568.36 C407.18,617.31 407.06,621.27 405.44,623.07 ZM 488.00 444.88 C483.49,447.61 480.47,447.56 477.63,444.72 C475.67,442.76 475.19,440.75 474.24,430.47 C473.63,423.89 472.13,413.55 470.89,407.50 L 468.64 396.50 L 470.93 389.50 C472.50,384.69 473.44,378.63 473.95,370.10 C474.53,360.34 475.04,357.45 476.33,356.50 C477.24,355.84 481.92,355.02 486.74,354.68 C496.13,354.02 502.14,352.48 509.12,348.97 C515.51,345.74 524.85,338.85 529.96,333.59 C532.41,331.07 535.00,329.00 535.71,329.00 C537.62,329.00 537.35,338.49 534.96,355.58 C530.97,383.96 525.83,399.23 514.42,416.59 C508.28,425.95 493.95,441.29 488.00,444.88 ZM 345.95 446.03 C343.39,447.40 342.05,447.20 337.50,444.80 C327.58,439.58 315.72,426.48 305.50,409.46 C296.53,394.53 292.89,382.06 289.51,354.72 C287.79,340.87 287.54,329.00 288.96,329.00 C289.49,329.00 293.06,332.04 296.89,335.75 C309.33,347.82 322.47,353.85 338.29,354.77 C349.51,355.42 350.00,356.00 350.00,368.55 C350.00,375.36 350.63,379.75 352.50,386.00 C355.37,395.58 355.58,399.93 353.57,407.86 C352.78,410.96 351.41,419.58 350.52,427.00 C348.54,443.55 348.23,444.80 345.95,446.03 ZM 459.17 1085.07 C453.10,1089.41 452.69,1089.55 451.23,1087.75 C449.87,1086.09 444.57,1070.03 442.89,1062.50 C440.90,1053.60 441.16,1027.82 443.37,1015.50 C445.79,1002.07 454.26,968.09 458.60,954.50 C462.61,941.92 467.72,931.66 470.20,931.19 C473.82,930.51 479.09,945.71 481.05,962.50 C483.12,980.14 482.89,1024.06 480.66,1037.92 C476.27,1065.31 471.18,1076.46 459.17,1085.07 ZM 373.83 1087.71 C372.26,1089.59 371.80,1089.43 365.31,1084.65 C351.35,1074.37 345.79,1058.41 342.92,1020.34 C341.36,999.56 343.03,960.10 345.97,948.60 C348.47,938.85 352.55,930.77 354.77,931.19 C358.78,931.97 365.90,950.91 373.49,981.00 C383.34,1020.02 385.55,1038.67 382.62,1057.79 C381.09,1067.78 376.00,1085.09 373.83,1087.71 ZM 326.60 1072.09 C321.56,1074.38 321.44,1074.39 316.42,1072.10 C311.65,1069.93 309.42,1065.91 305.44,1052.25 C301.60,1039.07 299.71,1024.96 300.43,1015.00 C300.97,1007.60 309.41,951.51 312.09,937.50 C313.21,931.64 319.02,920.63 321.22,920.20 C323.24,919.80 329.55,929.39 332.10,936.75 C336.84,950.38 337.15,953.64 338.13,1000.50 C338.66,1025.25 339.03,1047.75 338.98,1050.50 C338.79,1059.42 333.25,1069.07 326.60,1072.09 ZM 508.02 1072.37 C505.79,1073.27 503.86,1073.98 503.73,1073.96 C503.60,1073.93 501.76,1073.29 499.64,1072.54 C494.27,1070.62 490.34,1066.53 488.09,1060.52 C486.26,1055.62 486.21,1053.25 486.97,1004.45 C487.70,957.15 487.91,952.93 489.88,945.50 C492.69,934.92 501.06,919.00 503.82,919.00 C504.22,919.00 506.28,922.37 508.40,926.50 C512.51,934.49 511.78,930.96 520.57,985.00 C525.62,1016.03 525.03,1033.96 518.28,1055.50 C514.48,1067.60 512.73,1070.49 508.02,1072.37 ZM 475.37 1224.88 C472.09,1226.37 471.61,1226.32 468.88,1224.11 L 466.54 1222.21 L 466.47 1189.86 C466.40,1159.63 466.22,1156.47 463.74,1141.82 C462.27,1133.19 459.49,1119.53 457.54,1111.46 C455.59,1103.38 454.00,1096.43 454.00,1096.00 C454.00,1095.58 456.45,1094.04 459.44,1092.57 C466.38,1089.18 473.36,1081.52 478.50,1071.68 C480.70,1067.47 482.81,1064.02 483.18,1064.01 C483.56,1064.00 484.17,1064.95 484.54,1066.11 C485.63,1069.57 492.21,1076.18 496.50,1078.13 C498.70,1079.14 502.24,1079.97 504.36,1079.98 C507.62,1080.00 508.11,1080.27 507.52,1081.75 C495.94,1111.04 490.72,1127.35 487.03,1145.81 C482.31,1169.46 480.43,1184.43 478.47,1214.13 C477.88,1223.10 477.66,1223.83 475.37,1224.88 ZM 357.09 1223.34 C354.52,1225.53 352.44,1225.91 349.91,1224.64 C347.18,1223.28 346.15,1219.14 346.06,1209.22 C345.98,1200.44 343.32,1175.78 340.91,1161.50 C336.56,1135.67 332.04,1119.36 321.67,1092.00 L 317.31 1080.50 L 321.90 1079.96 C324.43,1079.66 327.88,1078.67 329.58,1077.77 C333.23,1075.82 339.52,1069.08 340.46,1066.11 C341.48,1062.91 342.71,1063.55 344.86,1068.42 C349.79,1079.57 357.53,1088.21 366.75,1092.89 C369.09,1094.07 371.00,1095.51 371.00,1096.08 C371.00,1096.65 369.61,1102.60 367.91,1109.31 C360.12,1140.02 357.58,1162.92 358.20,1196.62 C358.62,1218.94 358.49,1222.15 357.09,1223.34 ZM 248.50 399.46 C243.51,402.82 239.00,404.73 239.00,403.47 C239.00,403.11 239.94,398.24 241.08,392.66 C242.56,385.39 243.06,379.79 242.83,372.98 C242.52,364.18 242.25,363.09 239.25,358.56 C235.47,352.86 235.14,348.86 237.57,338.31 C239.81,328.56 248.68,302.62 252.31,295.16 C259.01,281.43 265.57,281.74 271.92,296.09 C274.52,301.96 279.00,324.25 279.00,331.29 C279.00,337.56 275.11,358.21 272.08,368.00 C268.28,380.31 259.46,392.08 248.50,399.46 ZM 585.54 402.25 C586.45,404.62 585.33,404.46 578.95,401.32 C575.84,399.79 570.45,395.59 566.41,391.57 C557.49,382.68 553.14,374.01 549.30,357.50 C543.15,331.09 547.03,299.24 557.80,287.75 C560.91,284.43 562.84,284.30 566.51,287.19 C571.02,290.74 579.37,311.56 584.44,331.92 C588.85,349.66 588.73,353.96 583.65,360.00 C580.39,363.87 579.50,371.07 580.96,381.69 C582.01,389.38 583.99,398.26 585.54,402.25 ZM 421.55 672.41 C417.09,674.53 408.47,674.40 403.50,672.13 C399.28,670.21 393.10,664.04 390.66,659.31 C389.87,657.76 387.61,652.33 385.64,647.24 C383.68,642.15 379.34,632.15 376.01,625.03 C369.88,611.92 367.60,604.25 369.11,601.83 C370.45,599.68 373.12,602.03 376.81,608.60 C387.27,627.24 405.97,635.10 425.24,628.93 C431.29,627.00 433.42,625.68 438.02,621.06 C441.06,618.00 445.47,612.24 447.82,608.25 C450.81,603.18 452.68,601.00 454.04,601.00 C457.91,601.00 455.75,610.60 448.76,624.50 C446.82,628.35 442.87,637.35 439.97,644.50 C437.07,651.65 433.99,658.62 433.13,660.00 C429.59,665.68 424.71,670.91 421.55,672.41 ZM 533.90 859.39 C525.97,884.79 526.14,878.20 534.93,819.50 C538.93,792.78 540.00,778.19 540.00,750.46 C540.00,723.02 539.14,713.26 534.33,686.50 C530.15,663.16 529.91,654.94 532.94,637.29 C535.24,623.85 536.47,619.56 537.32,622.00 C540.36,630.69 543.39,647.35 545.88,669.00 C554.72,746.07 551.05,804.50 533.90,859.39 ZM 291.54 832.44 C294.91,855.71 296.67,870.73 296.10,871.30 C294.16,873.24 283.72,836.61 280.10,815.18 C275.73,789.34 274.63,774.10 274.64,740.00 C274.65,697.73 277.65,663.34 284.05,632.28 C286.00,622.78 287.19,619.88 288.35,621.75 C289.50,623.61 293.07,645.76 293.63,654.50 C294.12,662.11 293.66,666.59 290.63,683.50 C285.88,710.06 285.10,717.05 284.36,739.50 C283.48,766.47 285.17,788.35 291.54,832.44 ZM 449.00 484.46 C442.67,485.98 435.02,487.39 432.00,487.61 C420.34,488.42 418.50,484.87 418.50,461.50 C418.50,446.50 418.74,444.03 420.50,440.50 L 422.50 436.50 L 434.00 436.59 C448.66,436.70 462.65,439.82 467.36,444.03 C470.42,446.77 470.50,447.05 470.41,455.17 C470.30,465.85 467.85,474.35 463.67,478.53 C461.01,481.19 458.63,482.15 449.00,484.46 ZM 400.69 486.50 C397.52,488.73 393.98,488.42 377.11,484.43 C371.40,483.08 364.99,481.00 362.86,479.80 C357.60,476.85 354.86,469.73 354.24,457.39 C353.78,448.49 353.84,448.21 356.64,445.11 C358.57,442.96 361.29,441.44 365.00,440.43 C381.81,435.85 399.45,434.58 402.22,437.75 C405.30,441.28 406.38,447.34 406.44,461.50 C406.51,476.77 404.95,483.52 400.69,486.50 ZM 164.82 550.78 C157.84,557.94 151.66,564.10 151.07,564.46 C148.09,566.30 151.38,560.52 168.68,533.50 C179.14,517.17 192.61,493.75 199.80,479.41 C206.54,465.96 208.82,463.39 215.84,461.38 C223.55,459.16 226.73,457.44 231.99,452.63 C235.85,449.10 236.53,448.78 236.84,450.41 C237.95,456.17 230.31,478.74 223.30,490.39 C217.04,500.80 208.47,510.30 192.69,524.29 C184.34,531.70 171.79,543.62 164.82,550.78 ZM 688.00 562.49 C688.00,563.28 687.13,564.40 686.06,564.97 C684.52,565.79 683.61,565.54 681.66,563.75 C678.20,560.59 658.32,529.61 651.61,516.92 C641.92,498.62 641.79,498.02 641.25,470.27 C640.78,446.56 641.11,441.00 642.95,441.00 C644.49,441.00 656.55,456.74 659.29,462.34 C660.72,465.25 662.40,470.76 663.03,474.57 C665.78,491.14 667.46,498.64 672.57,517.13 C678.00,536.77 680.59,544.47 685.42,555.28 C686.84,558.46 688.00,561.70 688.00,562.49 ZM 672.89 561.75 C675.25,566.26 672.20,563.77 662.09,552.95 C656.41,546.87 644.73,535.70 636.13,528.12 C618.28,512.37 607.32,501.04 601.95,492.77 C595.67,483.10 587.00,459.59 587.00,452.22 C587.00,449.33 587.22,449.05 588.85,449.92 C589.87,450.47 592.57,452.47 594.85,454.37 C597.16,456.30 601.98,458.81 605.75,460.04 C609.46,461.25 613.75,463.41 615.27,464.83 C616.79,466.25 620.57,472.38 623.67,478.46 C631.92,494.63 650.46,526.57 661.81,544.16 C667.26,552.60 672.24,560.51 672.89,561.75 ZM 153.74 546.75 C142.16,564.31 140.79,565.77 137.25,564.34 C135.25,563.53 135.76,561.08 139.90,551.48 C147.03,534.95 154.26,509.12 159.49,481.55 C161.07,473.25 163.18,465.46 164.72,462.32 C167.36,456.93 179.49,441.00 180.95,441.00 C182.57,441.00 182.97,445.83 182.99,465.14 C183.01,499.78 180.96,505.50 153.74,546.75 ZM 382.37 431.02 C361.18,434.55 360.82,434.56 358.52,432.02 C356.98,430.32 356.80,428.74 357.24,420.77 C357.89,409.04 359.83,404.24 366.27,398.45 C374.46,391.08 390.42,382.76 398.98,381.39 C402.58,380.81 402.95,380.99 404.64,384.14 C406.17,386.98 406.46,389.99 406.48,403.50 C406.50,420.00 405.80,423.44 401.68,426.85 C400.88,427.51 392.19,429.39 382.37,431.02 ZM 466.06 432.43 C464.41,434.42 460.38,434.31 447.00,431.93 C441.23,430.89 433.84,429.60 430.60,429.06 C419.68,427.22 417.56,422.28 418.15,399.95 C418.44,388.87 418.84,385.90 420.35,383.59 C422.03,381.03 422.56,380.83 426.29,381.43 C436.84,383.12 456.24,394.48 462.03,402.36 C463.69,404.61 465.52,408.20 466.09,410.33 C467.65,416.13 467.63,430.53 466.06,432.43 ZM 201.95 406.79 C200.70,413.55 199.35,419.28 198.96,419.52 C198.26,419.96 196.91,415.67 195.03,407.00 C193.59,400.40 193.80,382.79 195.42,372.79 C198.25,355.36 205.48,338.46 218.34,319.19 C225.09,309.09 241.44,292.00 244.37,292.00 C245.27,292.00 246.00,292.23 246.00,292.52 C246.00,294.27 226.53,350.96 225.23,353.00 C224.35,354.38 221.52,357.75 218.94,360.50 C210.28,369.72 207.33,377.76 201.95,406.79 ZM 627.42 413.25 C626.47,417.51 625.31,421.00 624.85,421.00 C624.38,421.00 624.00,420.79 624.00,420.53 C624.00,420.28 622.85,412.96 621.43,404.28 C617.25,378.52 613.02,367.21 604.51,359.00 C601.94,356.52 599.23,353.34 598.48,351.93 C596.87,348.85 579.00,295.05 579.00,293.25 C579.00,290.48 582.37,292.35 589.43,299.07 C604.43,313.31 621.31,342.74 626.40,363.50 C630.55,380.45 630.91,397.67 627.42,413.25 ZM 614.79 442.76 C611.96,445.10 608.37,445.87 605.93,444.65 C603.94,443.66 603.05,441.49 600.51,431.48 C598.84,424.89 595.74,415.26 593.62,410.08 C586.53,392.73 584.03,371.45 588.05,362.75 C589.77,359.02 594.63,358.97 598.98,362.63 C602.77,365.83 609.07,375.03 611.22,380.50 C614.54,388.98 620.00,419.16 620.00,429.03 C620.00,434.04 617.56,440.46 614.79,442.76 ZM 218.78 444.25 C217.68,445.21 216.44,446.00 216.04,446.00 C214.29,446.00 208.36,441.18 206.17,437.98 C203.94,434.72 203.82,433.87 204.34,424.50 C204.93,414.03 208.46,395.19 212.00,383.75 C215.80,371.43 225.48,360.00 232.11,360.00 C234.55,360.00 235.09,360.56 236.18,364.25 C237.98,370.30 237.72,385.18 235.66,394.17 C234.69,398.38 231.95,406.71 229.56,412.67 C227.17,418.63 224.22,427.77 223.00,433.00 C221.55,439.18 220.08,443.11 218.78,444.25 ZM 525.60 848.30 C524.30,854.24 523.07,859.26 522.87,859.47 C522.67,859.67 522.47,844.68 522.43,826.17 C522.38,802.18 521.88,787.83 520.68,776.24 C518.64,756.47 518.57,742.76 520.46,729.49 C523.16,710.52 527.67,691.24 529.07,692.70 C530.15,693.82 532.62,706.52 534.19,719.00 C536.17,734.84 535.88,780.80 533.68,799.50 C531.65,816.76 528.98,832.86 525.60,848.30 ZM 302.50 825.75 C302.50,844.59 302.16,860.00 301.75,860.00 C301.34,860.00 301.00,859.64 301.00,859.21 C301.00,858.77 299.63,851.68 297.95,843.46 C296.28,835.23 293.72,819.72 292.27,809.00 C289.89,791.42 289.62,786.31 289.57,757.00 C289.50,724.31 290.21,714.32 293.68,698.65 C294.63,694.41 295.56,692.16 296.14,692.74 C297.75,694.35 303.90,724.95 305.17,737.74 C306.24,748.46 306.15,752.54 304.45,770.74 C302.96,786.60 302.50,799.58 302.50,825.75 ZM 532.12 611.84 C530.00,618.79 526.80,624.11 525.75,622.41 C525.44,621.91 522.92,616.21 520.15,609.75 C517.21,602.90 512.47,594.22 508.80,588.96 C498.85,574.71 498.03,573.07 498.04,567.50 C498.04,564.66 498.90,560.61 500.03,558.12 C502.11,553.54 517.44,537.00 519.60,537.00 C521.40,537.00 522.30,540.56 527.88,569.50 L 528.49 572.67 C533.31,597.69 534.28,602.71 533.36,607.37 C533.09,608.73 532.66,610.06 532.12,611.84 ZM 300.49 618.25 C299.52,620.86 298.31,623.00 297.81,623.00 C296.61,623.00 292.44,613.77 290.98,607.91 C290.03,604.09 290.18,601.47 291.87,592.41 C296.04,570.03 302.93,538.67 303.89,537.71 C304.55,537.05 306.68,538.32 310.19,541.48 C321.80,551.90 326.00,558.82 326.00,567.53 C326.00,574.05 325.70,574.69 317.79,585.36 C312.14,592.98 304.39,607.72 300.49,618.25 ZM 375.00 384.49 C370.88,386.96 366.36,388.98 364.97,388.99 C358.81,389.02 356.02,383.64 356.01,371.72 C355.99,358.11 359.90,354.11 379.14,348.04 C386.49,345.72 393.53,343.41 394.80,342.91 C399.09,341.21 402.84,341.83 404.61,344.53 C407.13,348.37 407.62,359.62 405.55,365.85 C403.40,372.31 400.72,374.41 390.60,377.52 C386.14,378.89 379.12,382.02 375.00,384.49 ZM 464.69 386.75 C461.68,390.08 458.44,389.51 449.06,384.01 C444.41,381.28 438.25,378.53 435.36,377.88 C428.83,376.42 423.33,373.36 420.59,369.68 C418.79,367.24 418.50,365.45 418.50,356.54 C418.50,345.22 419.86,342.00 424.64,342.00 C427.74,342.00 453.54,349.77 458.12,352.08 C467.33,356.73 470.96,367.05 467.86,379.81 C467.24,382.39 465.81,385.51 464.69,386.75 ZM 698.44 555.78 C697.59,557.00 696.54,558.00 696.12,558.00 C693.17,558.00 684.39,542.48 680.01,529.54 C676.61,519.48 669.90,491.03 667.49,476.50 C665.41,463.94 662.93,458.55 654.58,448.50 C643.67,435.37 642.20,433.13 639.15,425.14 C635.95,416.74 634.18,407.55 635.88,408.14 C637.54,408.72 654.61,428.86 659.92,436.51 C671.44,453.10 676.34,466.12 682.08,495.37 C686.48,517.78 689.20,526.96 695.63,541.11 C700.50,551.81 700.66,552.62 698.44,555.78 ZM 131.32 554.03 C128.46,557.43 127.75,557.60 125.57,555.43 C123.31,553.17 123.60,550.82 127.09,543.23 C134.31,527.51 137.19,518.13 141.60,496.08 C144.06,483.73 147.21,470.23 148.61,466.08 C151.66,457.00 157.57,445.41 163.50,436.89 C168.64,429.51 186.11,409.14 187.38,409.06 C188.92,408.96 187.40,417.27 184.40,425.34 C182.69,429.93 179.76,435.27 177.26,438.32 C166.62,451.35 160.76,459.33 159.32,462.77 C158.47,464.82 156.93,471.69 155.91,478.05 C153.48,493.23 146.95,520.20 142.97,531.50 C139.62,541.05 135.42,549.15 131.32,554.03 ZM 454.41 919.94 C450.20,940.51 449.00,938.74 449.00,911.97 C449.00,892.47 447.59,877.94 444.00,860.50 C440.68,844.39 441.63,821.00 446.61,796.03 C450.17,778.20 450.37,778.27 451.96,798.00 C452.61,805.97 454.46,821.50 456.08,832.50 C461.31,867.91 460.92,888.12 454.41,919.94 ZM 375.97 909.00 C375.95,925.30 375.61,930.92 374.61,932.25 C373.44,933.79 373.00,932.73 371.10,923.81 C366.58,902.58 365.58,893.20 365.60,872.50 C365.61,855.78 366.07,849.55 368.37,834.50 C370.71,819.16 373.98,789.63 374.00,783.69 C374.00,782.70 374.40,782.13 374.89,782.43 C377.19,783.85 383.00,826.46 383.00,841.90 C383.00,845.72 382.08,853.50 380.96,859.18 C376.62,881.23 376.01,887.30 375.97,909.00 ZM 340.46 1187.29 C341.55,1196.70 341.74,1201.62 341.06,1202.79 C340.21,1204.24 340.06,1204.10 340.03,1201.88 C339.90,1190.66 326.58,1142.81 307.55,1085.26 C300.69,1064.49 294.41,1044.57 293.60,1041.00 C291.30,1030.80 290.67,1017.55 291.98,1006.65 C293.85,991.02 302.94,956.00 305.12,956.00 C306.50,956.00 306.21,958.68 303.04,975.66 C298.41,1000.38 296.72,1016.03 297.39,1027.74 C298.44,1046.02 300.24,1052.30 315.53,1091.00 C330.69,1129.38 336.23,1150.78 340.46,1187.29 ZM 485.45 1198.50 C484.61,1205.75 483.08,1209.22 483.03,1203.94 C482.98,1197.99 486.88,1168.66 489.57,1154.68 C493.00,1136.93 496.79,1124.07 504.62,1103.64 C526.60,1046.29 527.29,1043.79 527.36,1022.00 C527.40,1009.37 526.86,1004.30 523.14,982.66 C520.80,969.00 519.05,956.85 519.24,955.66 C519.76,952.57 526.49,973.89 529.42,987.89 C532.98,1004.94 534.16,1019.05 532.90,1029.67 C531.52,1041.34 530.16,1046.44 521.53,1072.50 C499.04,1140.41 487.49,1180.74 485.45,1198.50 ZM 635.60 440.98 C635.87,446.21 635.73,458.11 635.30,467.42 L 634.50 484.34 L 630.69 478.59 C628.59,475.43 624.20,469.24 620.94,464.84 C615.82,457.93 615.00,456.23 615.00,452.46 C615.00,446.65 616.58,443.48 621.18,440.10 C623.28,438.56 626.59,435.20 628.54,432.65 C630.50,430.09 632.47,428.00 632.94,428.00 C634.44,428.00 635.10,431.24 635.60,440.98 ZM 198.44 471.53 C195.17,475.94 191.79,480.64 190.91,481.97 C189.43,484.24 189.28,482.94 188.64,461.95 C188.26,449.60 188.21,437.92 188.54,436.00 C190.20,426.16 190.42,426.06 195.38,432.97 C197.35,435.70 200.73,439.12 202.91,440.56 C209.28,444.77 210.79,452.35 206.68,459.50 C205.42,461.70 201.71,467.11 198.44,471.53 ZM 504.95 1170.00 C501.11,1185.91 499.00,1192.19 499.00,1187.75 C499.00,1175.47 502.58,1149.08 506.52,1132.35 C511.20,1112.48 524.66,1070.00 526.28,1070.00 C528.18,1070.00 523.45,1095.04 515.51,1127.00 C512.03,1141.03 507.28,1160.38 504.95,1170.00 ZM 324.50 1169.32 C325.34,1177.47 325.67,1184.76 325.25,1185.51 C324.45,1186.94 322.26,1178.86 310.53,1131.22 C296.38,1073.74 293.94,1053.16 305.40,1087.96 C317.48,1124.62 321.81,1143.07 324.50,1169.32 ZM 383.43 935.47 C380.39,950.56 379.79,946.96 380.27,916.50 C380.67,890.47 380.98,886.11 383.34,873.89 C384.78,866.41 386.37,859.21 386.87,857.89 L 387.78 855.50 L 388.54 858.42 C389.68,862.78 388.26,903.91 386.54,916.47 C385.72,922.51 384.31,931.06 383.43,935.47 ZM 367.93 1179.50 C366.29,1189.40 364.50,1198.62 363.97,1200.00 C362.41,1204.04 363.62,1159.98 365.37,1148.95 C368.67,1128.19 373.82,1106.00 375.33,1106.00 C377.23,1106.00 372.76,1150.44 367.93,1179.50 ZM 444.36 915.20 C444.46,932.98 444.19,939.20 443.25,940.15 C442.56,940.84 442.00,941.20 442.00,940.95 C442.00,940.70 440.85,933.07 439.44,924.00 C437.40,910.87 436.76,902.24 436.30,881.75 C435.68,854.31 436.42,849.91 439.35,863.75 C443.35,882.70 444.21,891.51 444.36,915.20 ZM 461.72 1180.75 C462.14,1194.88 461.99,1200.00 461.15,1200.00 C460.52,1200.00 460.00,1198.90 460.00,1197.57 C460.00,1196.23 459.33,1191.94 458.51,1188.03 C455.97,1175.97 452.14,1147.22 451.05,1132.00 C450.48,1124.03 449.79,1114.61 449.52,1111.07 C448.77,1100.96 450.48,1105.01 454.36,1122.50 C459.35,1145.03 461.07,1158.62 461.72,1180.75 ZM 597.00 437.05 C597.00,440.91 593.54,438.88 584.47,429.70 C576.54,421.68 574.55,418.94 569.97,409.71 C564.62,398.96 564.09,395.90 568.25,399.73 C569.49,400.87 574.03,403.93 578.34,406.53 C583.05,409.37 587.33,412.86 589.09,415.29 C591.94,419.21 597.00,433.15 597.00,437.05 ZM 237.72 432.16 C234.85,434.63 231.26,437.46 229.75,438.44 C227.06,440.19 227.00,440.18 227.00,438.17 C227.00,434.88 231.75,420.85 234.24,416.81 C235.75,414.35 240.23,410.66 247.75,405.70 C253.94,401.62 259.00,398.74 259.00,399.31 C259.00,401.09 250.91,416.24 246.84,422.08 C244.69,425.15 240.59,429.69 237.72,432.16 Z" fill="rgb(61,142,146)"/>
<path d="M 275.27 773.18 C273.63,748.52 273.89,722.19 276.05,693.72 C275.11,708.12 274.64,723.46 274.64,740.00 C274.63,753.37 274.80,763.84 275.27,773.18 ZM 485.45 1198.50 C486.26,1191.43 488.58,1180.79 492.49,1166.25 C488.72,1180.62 486.44,1191.72 485.00,1201.87 C483.09,1215.27 482.00,1219.31 482.00,1212.90 C482.00,1210.40 482.72,1203.31 483.75,1194.75 C483.29,1199.02 483.02,1202.33 483.03,1203.94 C483.08,1209.22 484.61,1205.75 485.45,1198.50 ZM 444.36 915.20 C444.31,907.96 444.20,902.12 443.96,896.95 C444.20,900.90 444.38,905.14 444.52,909.88 C445.12,930.17 444.08,949.30 442.69,943.50 C442.59,943.08 442.42,942.21 442.21,940.99 C442.43,940.89 442.81,940.58 443.25,940.15 C444.19,939.20 444.46,932.98 444.36,915.20 ZM 325.03 1175.19 C325.62,1181.90 325.94,1187.65 325.78,1189.12 L 325.42 1192.50 L 324.58 1188.50 C324.15,1186.46 321.37,1174.94 318.20,1162.11 C323.36,1182.58 324.67,1186.55 325.25,1185.51 C325.57,1184.95 325.46,1180.71 325.03,1175.19 ZM 341.65 1201.25 C342.36,1213.89 341.57,1217.34 340.51,1206.25 C340.43,1205.43 340.34,1204.59 340.24,1203.71 C340.39,1203.84 340.64,1203.51 341.06,1202.79 C341.45,1202.11 341.55,1200.18 341.36,1196.84 C341.47,1198.34 341.57,1199.81 341.65,1201.25 ZM 453.28 925.25 C451.77,932.26 450.19,938.00 449.77,938.00 C449.35,938.00 449.00,927.90 449.00,915.55 C449.00,904.19 448.71,895.17 447.97,886.78 C448.68,894.62 449.00,902.74 449.00,911.97 C449.00,936.26 449.99,939.96 453.31,925.07 ZM 375.51 928.29 C375.11,936.06 374.48,939.03 373.69,936.00 C373.07,933.59 371.94,928.18 370.75,922.14 C370.87,922.69 370.98,923.24 371.10,923.81 C373.00,932.73 373.44,933.79 374.61,932.25 C375.00,931.73 375.30,930.54 375.51,928.29 ZM 292.47 838.89 C295.07,857.31 296.97,872.45 296.81,873.79 C296.51,876.44 293.48,868.08 290.09,856.63 C292.85,865.81 295.27,872.13 296.10,871.30 C296.61,870.79 295.22,858.46 292.47,838.89 ZM 303.83 1083.29 C298.79,1068.61 297.17,1067.44 298.71,1077.49 C298.44,1076.05 298.20,1074.83 298.04,1074.00 C297.11,1069.22 297.51,1067.61 299.03,1070.03 C299.59,1070.91 301.47,1076.22 303.83,1083.29 ZM 340.03 1202.09 C338.84,1193.08 336.34,1181.38 332.39,1166.46 C337.19,1184.14 339.97,1196.78 340.03,1201.88 C340.03,1201.95 340.03,1202.03 340.03,1202.09 ZM 459.15 859.37 C458.58,851.22 457.55,842.46 456.08,832.50 C454.46,821.50 452.61,805.97 451.96,798.00 C451.86,796.77 451.77,795.61 451.68,794.53 C451.77,795.61 451.86,796.77 451.96,798.00 C452.61,805.97 454.53,821.72 456.24,833.00 C458.03,844.80 458.82,851.35 459.15,859.37 ZM 313.30 1085.33 C303.76,1061.06 300.23,1050.88 298.63,1040.60 C300.17,1050.24 303.64,1060.37 313.30,1085.33 ZM 290.81 633.10 C290.87,633.42 290.93,633.75 290.99,634.09 C292.65,643.28 293.57,649.61 293.71,655.81 C293.69,655.38 293.66,654.95 293.63,654.50 C293.32,649.60 292.06,640.49 290.81,633.10 ZM 282.70 639.15 C284.35,629.52 285.91,622.69 286.91,621.69 C287.05,621.55 287.19,621.43 287.32,621.37 C286.44,622.10 285.44,625.52 284.05,632.28 C283.58,634.55 283.13,636.84 282.70,639.15 ZM 323.22 1158.38 C321.58,1146.19 319.32,1135.00 315.70,1121.63 C319.36,1134.89 321.52,1145.32 323.22,1158.38 ZM 331.38 1137.16 C329.09,1128.65 326.32,1119.98 322.88,1110.39 C325.16,1116.70 327.28,1122.84 328.44,1126.65 C329.46,1129.97 330.44,1133.49 331.38,1137.16 ZM 367.41 904.00 C367.19,902.68 367.00,901.50 366.85,900.50 C366.06,895.19 365.54,883.50 365.57,872.00 C365.59,867.25 365.64,863.32 365.77,859.76 C365.65,863.41 365.60,867.48 365.60,872.50 C365.58,885.57 365.98,894.13 367.41,904.00 ZM 454.87 917.63 C456.58,909.06 457.82,901.32 458.61,893.85 C457.97,900.98 456.82,908.02 454.87,917.63 ZM 300.61 1087.98 C301.73,1093.51 303.21,1100.32 305.06,1108.32 C302.68,1098.25 301.41,1092.36 300.61,1087.98 ZM 340.46 1187.29 C339.98,1183.14 339.48,1179.18 338.95,1175.37 C339.64,1180.10 340.22,1184.76 340.68,1189.27 C340.61,1188.63 340.54,1187.97 340.46,1187.29 ZM 285.89 841.48 C284.33,835.48 282.91,829.52 281.88,824.44 C283.03,829.92 284.43,835.80 285.89,841.48 ZM 440.25 929.22 C439.98,927.53 439.70,925.77 439.43,924.00 C438.49,917.93 437.85,912.79 437.39,906.99 C437.85,912.78 438.50,917.91 439.44,924.00 C439.72,925.81 439.99,927.57 440.25,929.22 Z" fill="rgb(117,165,165)"/>
<path d="M 458.20 943.27 C459.09,940.94 459.98,938.61 460.85,936.30 C459.43,940.16 458.14,943.65 457.19,946.23 C452.68,958.46 450.15,962.59 451.35,955.75 C451.66,953.96 452.36,949.54 452.90,945.93 C453.44,942.31 455.21,934.21 456.84,927.93 C457.25,926.33 457.65,924.76 458.03,923.23 C457.71,924.62 457.36,926.04 457.01,927.50 C453.33,942.73 450.95,958.33 452.55,956.77 C452.95,956.37 455.50,950.30 458.20,943.27 ZM 437.00 820.38 C437.00,822.37 436.60,824.00 436.11,824.00 C435.61,824.00 435.23,822.99 435.25,821.75 C435.26,821.47 435.18,820.83 435.05,819.91 C435.17,820.03 435.51,819.86 435.91,819.45 C436.36,818.98 437.33,814.37 438.18,808.83 C437.44,814.12 437.00,818.24 437.00,820.38 ZM 341.65 1201.25 C341.57,1199.81 341.47,1198.34 341.36,1196.84 C341.33,1196.33 341.29,1195.79 341.25,1195.21 C341.33,1196.18 341.41,1197.12 341.47,1198.00 C341.79,1202.68 342.28,1208.64 342.56,1211.25 C342.84,1213.86 342.66,1216.00 342.15,1216.00 C341.65,1216.00 340.92,1212.06 340.53,1207.25 C340.44,1206.17 340.33,1204.95 340.19,1203.65 C340.21,1203.68 340.22,1203.70 340.24,1203.71 C340.34,1204.59 340.43,1205.43 340.51,1206.25 C341.57,1217.34 342.36,1213.89 341.65,1201.25 ZM 482.34 867.48 C484.87,851.00 485.75,831.27 485.22,804.89 C486.11,828.93 485.17,849.62 482.34,867.48 ZM 464.87 886.72 C466.57,869.05 465.28,852.03 461.45,825.50 C465.42,852.98 466.75,868.88 464.87,886.72 ZM 330.91 1161.06 C324.80,1139.55 315.95,1110.67 307.55,1085.26 C317.08,1114.09 325.18,1140.48 330.91,1161.06 ZM 438.67 805.52 C440.65,791.96 443.53,777.13 447.24,761.29 C445.75,767.74 444.37,774.13 443.09,780.53 C441.33,789.36 439.77,798.25 438.67,805.52 ZM 468.57 915.46 C473.35,902.20 477.04,891.24 478.53,885.71 C478.20,886.97 477.86,888.21 477.50,889.44 C476.09,894.27 472.10,905.89 468.57,915.46 ZM 325.39 1117.46 C324.61,1115.21 323.76,1112.81 322.88,1110.39 C322.16,1108.40 321.42,1106.36 320.64,1104.28 C322.38,1108.90 323.96,1113.26 325.39,1117.46 ZM 488.92 781.94 C489.88,785.14 490.00,793.63 490.00,814.88 C490.00,793.68 489.86,785.21 488.92,781.94 ZM 331.38 1137.16 C331.27,1136.70 331.15,1136.25 331.03,1135.80 C331.41,1137.18 331.77,1138.54 332.11,1139.91 C331.88,1138.99 331.63,1138.07 331.38,1137.16 ZM 340.03 1202.09 L 340.04 1202.20 C340.02,1202.02 339.99,1201.84 339.97,1201.65 C339.99,1201.80 340.01,1201.95 340.03,1202.09 Z" fill="rgb(180,216,216)"/>
<path d="M 0.00 657.00 L 0.00 0.00 L 399.00 0.00 L 798.00 0.00 L 798.00 657.00 L 798.00 1314.00 L 399.00 1314.00 L 0.00 1314.00 L 0.00 657.00 ZM 357.09 1223.34 C358.49,1222.15 358.62,1218.94 358.20,1196.62 C357.58,1162.92 360.12,1140.02 367.91,1109.31 C369.61,1102.60 371.00,1096.65 371.00,1096.08 C371.00,1095.51 369.09,1094.07 366.75,1092.89 C357.53,1088.21 349.79,1079.57 344.86,1068.42 C342.71,1063.55 341.48,1062.91 340.46,1066.11 C339.52,1069.08 333.23,1075.82 329.58,1077.77 C327.88,1078.67 324.43,1079.66 321.90,1079.96 L 317.31 1080.50 L 321.67 1092.00 C332.04,1119.36 336.56,1135.67 340.91,1161.50 C343.32,1175.78 345.98,1200.44 346.06,1209.22 C346.15,1219.14 347.18,1223.28 349.91,1224.64 C352.44,1225.91 354.52,1225.53 357.09,1223.34 ZM 475.37 1224.88 C477.66,1223.83 477.88,1223.10 478.47,1214.13 C480.43,1184.43 482.31,1169.46 487.03,1145.81 C490.72,1127.35 495.94,1111.04 507.52,1081.75 C508.11,1080.27 507.62,1080.00 504.36,1079.98 C502.24,1079.97 498.70,1079.14 496.50,1078.13 C492.21,1076.18 485.63,1069.57 484.54,1066.11 C484.17,1064.95 483.56,1064.00 483.18,1064.01 C482.81,1064.02 480.70,1067.47 478.50,1071.68 C473.36,1081.52 466.38,1089.18 459.44,1092.57 C456.45,1094.04 454.00,1095.58 454.00,1096.00 C454.00,1096.43 455.59,1103.38 457.54,1111.46 C459.49,1119.53 462.27,1133.19 463.74,1141.82 C466.22,1156.47 466.40,1159.63 466.47,1189.86 L 466.54 1222.21 L 468.88 1224.11 C471.61,1226.32 472.09,1226.37 475.37,1224.88 ZM 342.56 1211.25 C342.28,1208.64 341.79,1202.68 341.47,1198.00 C340.61,1185.71 337.51,1164.37 334.54,1150.32 C331.10,1134.09 326.30,1118.69 318.35,1098.33 C299.89,1051.05 298.45,1046.20 297.39,1027.74 C296.72,1016.03 298.41,1000.38 303.04,975.66 C306.21,958.68 306.50,956.00 305.12,956.00 C302.94,956.00 293.85,991.02 291.98,1006.65 C290.67,1017.55 291.30,1030.80 293.60,1041.00 C294.41,1044.57 300.69,1064.49 307.55,1085.26 C321.31,1126.89 336.28,1177.84 338.43,1190.41 C339.20,1194.86 340.14,1202.44 340.53,1207.25 C340.92,1212.06 341.65,1216.00 342.15,1216.00 C342.66,1216.00 342.84,1213.86 342.56,1211.25 ZM 485.00 1201.87 C488.58,1176.58 497.41,1145.32 521.53,1072.50 C530.16,1046.44 531.52,1041.34 532.90,1029.67 C534.16,1019.05 532.98,1004.94 529.42,987.89 C526.49,973.89 519.76,952.57 519.24,955.66 C519.05,956.85 520.80,969.00 523.14,982.66 C526.86,1004.30 527.40,1009.37 527.36,1022.00 C527.29,1043.79 526.60,1046.29 504.62,1103.64 C496.76,1124.15 493.00,1136.92 489.52,1154.98 C486.93,1168.40 482.00,1206.35 482.00,1212.90 C482.00,1219.31 483.09,1215.27 485.00,1201.87 ZM 367.93 1179.50 C372.76,1150.44 377.23,1106.00 375.33,1106.00 C373.82,1106.00 368.67,1128.19 365.37,1148.95 C363.62,1159.98 362.41,1204.04 363.97,1200.00 C364.50,1198.62 366.29,1189.40 367.93,1179.50 ZM 461.72 1180.75 C461.07,1158.62 459.35,1145.03 454.36,1122.50 C450.48,1105.01 448.77,1100.96 449.52,1111.07 C449.79,1114.61 450.48,1124.03 451.05,1132.00 C452.14,1147.22 455.97,1175.97 458.51,1188.03 C459.33,1191.94 460.00,1196.23 460.00,1197.57 C460.00,1198.90 460.52,1200.00 461.15,1200.00 C461.99,1200.00 462.14,1194.88 461.72,1180.75 ZM 324.50 1169.62 C322.48,1149.76 320.12,1137.22 314.96,1118.99 C310.48,1103.14 300.44,1072.27 299.03,1070.03 C297.51,1067.61 297.11,1069.22 298.04,1074.00 C298.53,1076.48 299.65,1082.55 300.53,1087.50 C302.14,1096.55 305.78,1111.93 317.43,1159.00 C320.90,1173.03 324.12,1186.30 324.58,1188.50 L 325.42 1192.50 L 325.78 1189.12 C325.98,1187.26 325.41,1178.48 324.50,1169.62 ZM 504.95 1170.00 C507.28,1160.38 512.03,1141.03 515.51,1127.00 C523.45,1095.04 528.18,1070.00 526.28,1070.00 C524.66,1070.00 511.20,1112.48 506.52,1132.35 C502.58,1149.08 499.00,1175.47 499.00,1187.75 C499.00,1192.19 501.11,1185.91 504.95,1170.00 ZM 373.83 1087.71 C376.00,1085.09 381.09,1067.78 382.62,1057.79 C385.55,1038.67 383.34,1020.02 373.49,981.00 C365.90,950.91 358.78,931.97 354.77,931.19 C352.55,930.77 348.47,938.85 345.97,948.60 C343.03,960.10 341.36,999.56 342.92,1020.34 C345.79,1058.41 351.35,1074.37 365.31,1084.65 C371.80,1089.43 372.26,1089.59 373.83,1087.71 ZM 459.17 1085.07 C471.18,1076.46 476.27,1065.31 480.66,1037.92 C482.89,1024.06 483.12,980.14 481.05,962.50 C479.09,945.71 473.82,930.51 470.20,931.19 C467.72,931.66 462.61,941.92 458.60,954.50 C454.26,968.09 445.79,1002.07 443.37,1015.50 C441.16,1027.82 440.90,1053.60 442.89,1062.50 C444.57,1070.03 449.87,1086.09 451.23,1087.75 C452.69,1089.55 453.10,1089.41 459.17,1085.07 ZM 326.60 1072.09 C333.25,1069.07 338.79,1059.42 338.98,1050.50 C339.03,1047.75 338.66,1025.25 338.13,1000.50 C337.15,953.64 336.84,950.38 332.10,936.75 C329.55,929.39 323.24,919.80 321.22,920.20 C319.02,920.63 313.21,931.64 312.09,937.50 C309.41,951.51 300.97,1007.60 300.43,1015.00 C299.71,1024.96 301.60,1039.07 305.44,1052.25 C309.42,1065.91 311.65,1069.93 316.42,1072.10 C321.44,1074.39 321.56,1074.38 326.60,1072.09 ZM 508.02 1072.37 C512.73,1070.49 514.48,1067.60 518.28,1055.50 C525.03,1033.96 525.62,1016.03 520.57,985.00 C511.78,930.96 512.51,934.49 508.40,926.50 C506.28,922.37 504.22,919.00 503.82,919.00 C501.06,919.00 492.69,934.92 489.88,945.50 C487.91,952.93 487.70,957.15 486.97,1004.45 C486.21,1053.25 486.26,1055.62 488.09,1060.52 C490.34,1066.53 494.27,1070.62 499.64,1072.54 C501.76,1073.29 503.60,1073.93 503.73,1073.96 C503.86,1073.98 505.79,1073.27 508.02,1072.37 ZM 457.19 946.23 C459.77,939.23 464.81,925.60 468.39,915.94 C471.97,906.28 476.07,894.35 477.50,889.44 C484.04,866.96 486.55,839.02 485.18,804.00 C484.70,791.62 484.49,781.16 484.71,780.75 C484.93,780.34 485.94,780.00 486.93,780.00 C489.70,780.00 490.00,783.45 490.00,814.88 C490.01,852.56 491.73,871.26 497.01,890.83 C499.96,901.75 520.51,943.12 521.47,940.08 C522.27,937.58 521.71,929.99 518.79,903.50 C516.94,886.79 516.67,878.01 516.55,830.50 C516.41,778.91 516.31,775.94 514.12,764.00 C511.36,748.91 511.54,746.25 517.04,719.50 C525.39,678.84 526.20,672.98 525.68,657.00 C524.99,635.96 521.62,622.07 513.23,605.66 C508.64,596.70 500.69,585.00 499.18,585.00 C498.73,585.00 497.33,591.15 496.08,598.66 C492.85,618.11 485.20,648.10 476.97,673.57 C463.65,714.84 451.52,758.83 450.39,770.00 C449.84,775.34 449.91,775.55 452.91,777.20 C454.61,778.14 456.00,779.72 456.00,780.71 C456.00,783.93 458.94,808.07 461.45,825.50 C467.94,870.47 467.14,888.11 456.84,927.93 C455.21,934.21 453.44,942.31 452.90,945.93 C452.36,949.54 451.66,953.96 451.35,955.75 C450.15,962.59 452.68,958.46 457.19,946.23 ZM 373.00 955.25 C372.99,952.61 369.40,934.63 366.92,924.72 C357.68,887.94 357.15,869.17 364.01,821.50 C365.59,810.50 367.33,796.56 367.88,790.52 C368.84,780.01 369.01,779.44 371.95,777.02 C373.64,775.64 375.01,773.67 375.01,772.66 C374.98,766.52 359.47,710.64 348.45,677.00 C342.12,657.64 333.74,627.44 331.47,615.74 C330.59,611.21 329.02,602.60 327.97,596.62 C326.92,590.63 325.83,585.50 325.55,585.21 C324.33,583.99 314.27,598.65 309.52,608.57 C302.81,622.60 299.80,634.72 298.45,653.12 C297.56,665.35 298.79,674.76 306.07,711.24 C312.59,743.91 313.08,750.10 310.29,764.00 C308.83,771.29 308.55,780.29 308.35,827.40 C308.22,857.59 307.65,886.84 307.08,892.40 C306.51,897.95 305.36,908.80 304.53,916.50 C302.82,932.33 302.58,942.00 303.88,942.00 C304.37,942.00 305.79,939.41 307.04,936.25 C308.29,933.09 312.61,924.42 316.63,917.00 C326.83,898.20 329.73,888.95 333.11,864.50 C333.72,860.10 334.51,839.40 334.86,818.50 L 335.50 780.50 L 337.91 780.16 L 340.32 779.82 L 339.68 803.66 C338.30,855.27 341.97,878.49 358.32,921.50 C370.24,952.87 371.50,955.97 372.25,955.99 C372.66,955.99 373.00,955.66 373.00,955.25 ZM 444.52 909.88 C443.96,890.80 442.71,879.69 439.35,863.75 C436.42,849.91 435.68,854.31 436.30,881.75 C436.76,902.17 437.41,910.92 439.43,924.00 C440.83,933.08 442.30,941.85 442.69,943.50 C444.08,949.30 445.12,930.17 444.52,909.88 ZM 383.43 935.47 C384.31,931.06 385.72,922.51 386.54,916.47 C388.26,903.91 389.68,862.78 388.54,858.42 L 387.78 855.50 L 386.87 857.89 C386.37,859.21 384.78,866.41 383.34,873.89 C380.98,886.11 380.67,890.47 380.27,916.50 C379.79,946.96 380.39,950.56 383.43,935.47 ZM 375.93 908.50 C376.01,887.40 376.66,881.00 380.96,859.18 C382.08,853.50 383.00,845.72 383.00,841.90 C383.00,826.46 377.19,783.85 374.89,782.43 C374.40,782.13 374.00,782.70 374.00,783.69 C373.98,789.61 370.71,819.15 368.37,834.50 C366.12,849.27 365.62,856.00 365.57,872.00 C365.54,883.50 366.06,895.19 366.85,900.50 C368.11,908.94 372.25,930.43 373.69,936.00 C374.96,940.92 375.85,930.03 375.93,908.50 ZM 453.28 925.25 C458.35,901.59 459.38,892.70 459.36,872.50 C459.35,856.37 458.88,850.40 456.24,833.00 C454.53,821.72 452.61,805.97 451.96,798.00 C450.37,778.27 450.17,778.20 446.61,796.03 C441.63,821.00 440.68,844.39 444.00,860.50 C447.78,878.87 449.00,892.30 449.00,915.55 C449.00,927.90 449.35,938.00 449.77,938.00 C450.19,938.00 451.77,932.26 453.28,925.25 ZM 291.59 832.79 C285.17,788.33 283.48,766.51 284.36,739.50 C285.10,717.05 285.88,710.06 290.63,683.50 C294.68,660.90 294.72,654.68 290.99,634.09 C288.77,621.88 288.26,620.34 286.91,621.69 C284.51,624.09 278.83,660.33 276.51,688.00 C272.26,738.74 273.89,782.69 281.50,822.50 C285.29,842.35 296.22,878.95 296.81,873.79 C296.98,872.31 294.64,853.86 291.59,832.79 ZM 533.90 859.39 C551.05,804.50 554.72,746.07 545.88,669.00 C543.39,647.35 540.36,630.69 537.32,622.00 C536.47,619.56 535.24,623.85 532.94,637.29 C529.91,654.94 530.15,663.16 534.33,686.50 C539.14,713.26 540.00,723.02 540.00,750.46 C540.00,778.19 538.93,792.78 534.93,819.50 C526.14,878.20 525.97,884.79 533.90,859.39 ZM 302.50 825.75 C302.50,799.58 302.96,786.60 304.45,770.74 C306.15,752.54 306.24,748.46 305.17,737.74 C303.90,724.95 297.75,694.35 296.14,692.74 C295.56,692.16 294.63,694.41 293.68,698.65 C290.21,714.32 289.50,724.31 289.57,757.00 C289.62,786.31 289.89,791.42 292.27,809.00 C293.72,819.72 296.28,835.23 297.95,843.46 C299.63,851.68 301.00,858.77 301.00,859.21 C301.00,859.64 301.34,860.00 301.75,860.00 C302.16,860.00 302.50,844.59 302.50,825.75 ZM 525.60 848.30 C528.98,832.86 531.65,816.76 533.68,799.50 C535.88,780.80 536.17,734.84 534.19,719.00 C532.62,706.52 530.15,693.82 529.07,692.70 C527.67,691.24 523.16,710.52 520.46,729.49 C518.57,742.76 518.64,756.47 520.68,776.24 C521.88,787.83 522.38,802.18 522.43,826.17 C522.47,844.68 522.67,859.67 522.87,859.47 C523.07,859.26 524.30,854.24 525.60,848.30 ZM 437.00 820.38 C437.00,815.10 439.66,797.70 443.09,780.53 C448.58,753.06 455.84,725.80 466.42,692.86 C477.92,657.08 481.20,645.00 486.47,618.88 C490.39,599.51 491.11,587.36 488.42,586.33 C486.21,585.48 474.83,596.93 465.12,609.75 C455.57,622.36 449.47,633.83 443.99,649.50 C439.24,663.10 437.37,666.55 431.19,673.20 C427.99,676.65 426.72,678.91 426.43,681.70 C423.77,707.24 422.81,725.14 423.37,738.50 C424.12,756.20 427.60,782.38 432.08,804.00 C433.84,812.53 435.27,820.51 435.25,821.75 C435.23,822.99 435.61,824.00 436.11,824.00 C436.60,824.00 437.00,822.37 437.00,820.38 ZM 392.37 806.50 C395.98,788.20 397.68,777.54 399.46,762.00 C401.20,746.70 401.49,717.77 400.01,706.82 C399.46,702.80 398.63,694.41 398.16,688.20 L 397.31 676.89 L 393.31 672.70 C386.85,665.92 385.09,662.71 379.48,647.39 C371.64,626.02 363.40,612.77 346.42,594.25 C338.06,585.12 335.11,583.85 334.84,589.25 C333.95,606.80 342.81,647.08 357.00,690.02 C370.52,730.91 379.35,765.93 385.28,802.18 C387.05,813.01 388.79,821.33 389.15,820.68 C389.50,820.03 390.95,813.65 392.37,806.50 ZM 421.55 672.41 C424.71,670.91 429.59,665.68 433.13,660.00 C433.99,658.62 437.07,651.65 439.97,644.50 C442.87,637.35 446.82,628.35 448.76,624.50 C455.75,610.60 457.91,601.00 454.04,601.00 C452.68,601.00 450.81,603.18 447.82,608.25 C445.47,612.24 441.06,618.00 438.02,621.06 C433.42,625.68 431.29,627.00 425.24,628.93 C405.97,635.10 387.27,627.24 376.81,608.60 C373.12,602.03 370.45,599.68 369.11,601.83 C367.60,604.25 369.88,611.92 376.01,625.03 C379.34,632.15 383.68,642.15 385.64,647.24 C387.61,652.33 389.87,657.76 390.66,659.31 C393.10,664.04 399.28,670.21 403.50,672.13 C408.47,674.40 417.09,674.53 421.55,672.41 ZM 405.44 623.07 C407.06,621.27 407.18,617.31 407.08,568.36 C407.02,538.09 406.54,512.80 405.95,509.05 C404.84,501.90 402.85,498.41 398.40,495.81 C394.79,493.71 365.51,487.70 362.91,488.53 C361.86,488.86 360.71,490.29 360.36,491.70 C359.17,496.46 360.89,522.38 363.45,538.34 C366.47,557.09 374.16,591.76 376.90,598.97 C381.03,609.85 389.06,619.31 397.36,623.08 C402.57,625.44 403.29,625.44 405.44,623.07 ZM 427.39 623.05 C436.65,619.08 445.83,606.00 449.92,590.95 C457.18,564.23 463.89,525.83 464.68,506.50 C465.20,493.78 465.08,492.29 463.38,490.22 L 461.50 487.94 L 444.01 491.40 C427.15,494.74 426.40,494.99 423.33,498.34 C421.58,500.25 419.65,503.54 419.04,505.66 C418.33,508.13 417.71,529.32 417.31,565.09 L 416.69 620.69 L 418.84 622.84 C421.48,625.48 421.71,625.48 427.39,623.05 ZM 300.49 618.25 C304.39,607.72 312.14,592.98 317.79,585.36 C325.70,574.69 326.00,574.05 326.00,567.53 C326.00,558.82 321.80,551.90 310.19,541.48 C306.68,538.32 304.55,537.05 303.89,537.71 C302.93,538.67 296.04,570.03 291.87,592.41 C290.18,601.47 290.03,604.09 290.98,607.91 C292.44,613.77 296.61,623.00 297.81,623.00 C298.31,623.00 299.52,620.86 300.49,618.25 ZM 532.12 611.84 C534.59,603.69 534.73,605.08 527.88,569.50 C522.30,540.56 521.40,537.00 519.60,537.00 C517.44,537.00 502.11,553.54 500.03,558.12 C498.90,560.61 498.04,564.66 498.04,567.50 C498.03,573.07 498.85,574.71 508.80,588.96 C512.47,594.22 517.21,602.90 520.15,609.75 C522.92,616.21 525.44,621.91 525.75,622.41 C526.80,624.11 530.00,618.79 532.12,611.84 ZM 472.87 584.66 C480.48,580.18 489.49,570.07 491.59,563.66 C494.90,553.53 498.13,548.61 507.54,539.36 C516.00,531.05 516.91,529.80 517.55,525.48 C518.66,518.12 517.47,505.93 513.99,489.00 C511.14,475.10 510.86,472.21 511.27,461.00 C511.54,453.47 512.53,445.12 513.75,440.00 C516.55,428.25 517.23,424.00 516.30,424.02 C515.86,424.03 513.70,426.57 511.50,429.65 C506.21,437.06 497.87,445.34 490.95,450.03 C475.52,460.51 470.06,474.73 470.06,504.42 C470.06,525.34 468.34,537.29 461.06,566.97 C457.17,582.83 457.13,585.47 460.75,587.42 C464.05,589.20 465.83,588.79 472.87,584.66 ZM 364.80 586.80 C366.76,584.84 366.20,579.20 362.53,564.27 C356.55,539.90 354.95,528.45 354.39,506.00 C354.10,494.73 353.39,483.25 352.81,480.50 C349.67,465.76 344.86,458.05 334.10,450.51 C326.00,444.83 314.60,433.62 311.47,428.25 C307.57,421.58 306.90,425.74 309.91,437.83 C315.02,458.31 315.03,466.52 309.98,490.00 C306.41,506.60 305.23,520.54 306.88,526.61 C307.73,529.72 310.04,532.72 316.39,538.95 C325.04,547.44 328.26,552.25 332.04,562.37 C337.21,576.19 359.09,592.51 364.80,586.80 ZM 688.00 562.49 C688.00,561.70 686.84,558.46 685.42,555.28 C680.59,544.47 678.00,536.77 672.57,517.13 C667.46,498.64 665.78,491.14 663.03,474.57 C662.40,470.76 660.72,465.25 659.29,462.34 C656.55,456.74 644.49,441.00 642.95,441.00 C641.11,441.00 640.78,446.56 641.25,470.27 C641.79,498.02 641.92,498.62 651.61,516.92 C658.32,529.61 678.20,560.59 681.66,563.75 C683.61,565.54 684.52,565.79 686.06,564.97 C687.13,564.40 688.00,563.28 688.00,562.49 ZM 153.74 546.75 C180.96,505.50 183.01,499.78 182.99,465.14 C182.97,445.83 182.57,441.00 180.95,441.00 C179.49,441.00 167.36,456.93 164.72,462.32 C163.18,465.46 161.07,473.25 159.49,481.55 C154.26,509.12 147.03,534.95 139.90,551.48 C135.76,561.08 135.25,563.53 137.25,564.34 C140.79,565.77 142.16,564.31 153.74,546.75 ZM 164.82 550.78 C171.79,543.62 184.34,531.70 192.69,524.29 C208.47,510.30 217.04,500.80 223.30,490.39 C230.31,478.74 237.95,456.17 236.84,450.41 C236.53,448.78 235.85,449.10 231.99,452.63 C226.73,457.44 223.55,459.16 215.84,461.38 C208.82,463.39 206.54,465.96 199.80,479.41 C192.61,493.75 179.14,517.17 168.68,533.50 C151.38,560.52 148.09,566.30 151.07,564.46 C151.66,564.10 157.84,557.94 164.82,550.78 ZM 672.89 561.75 C672.24,560.51 667.26,552.60 661.81,544.16 C650.46,526.57 631.92,494.63 623.67,478.46 C620.57,472.38 616.79,466.25 615.27,464.83 C613.75,463.41 609.46,461.25 605.75,460.04 C601.98,458.81 597.16,456.30 594.85,454.37 C592.57,452.47 589.87,450.47 588.85,449.92 C587.22,449.05 587.00,449.33 587.00,452.22 C587.00,459.59 595.67,483.10 601.95,492.77 C607.32,501.04 618.28,512.37 636.13,528.12 C644.73,535.70 656.41,546.87 662.09,552.95 C672.20,563.77 675.25,566.26 672.89,561.75 ZM 698.44 555.78 C700.66,552.62 700.50,551.81 695.63,541.11 C689.20,526.96 686.48,517.78 682.08,495.37 C676.34,466.12 671.44,453.10 659.92,436.51 C654.61,428.86 637.54,408.72 635.88,408.14 C634.18,407.55 635.95,416.74 639.15,425.14 C642.20,433.13 643.67,435.37 654.58,448.50 C662.93,458.55 665.41,463.94 667.49,476.50 C669.90,491.03 676.61,519.48 680.01,529.54 C684.39,542.48 693.17,558.00 696.12,558.00 C696.54,558.00 697.59,557.00 698.44,555.78 ZM 131.32 554.03 C135.42,549.15 139.62,541.05 142.97,531.50 C146.95,520.20 153.48,493.23 155.91,478.05 C156.93,471.69 158.47,464.82 159.32,462.77 C160.76,459.33 166.62,451.35 177.26,438.32 C179.76,435.27 182.69,429.93 184.40,425.34 C187.40,417.27 188.92,408.96 187.38,409.06 C186.11,409.14 168.64,429.51 163.50,436.89 C157.57,445.41 151.66,457.00 148.61,466.08 C147.21,470.23 144.06,483.73 141.60,496.08 C137.19,518.13 134.31,527.51 127.09,543.23 C123.60,550.82 123.31,553.17 125.57,555.43 C127.75,557.60 128.46,557.43 131.32,554.03 ZM 400.69 486.50 C404.95,483.52 406.51,476.77 406.44,461.50 C406.38,447.34 405.30,441.28 402.22,437.75 C399.45,434.58 381.81,435.85 365.00,440.43 C361.29,441.44 358.57,442.96 356.64,445.11 C353.84,448.21 353.78,448.49 354.24,457.39 C354.86,469.73 357.60,476.85 362.86,479.80 C364.99,481.00 371.40,483.08 377.11,484.43 C393.98,488.42 397.52,488.73 400.69,486.50 ZM 449.00 484.46 C458.63,482.15 461.01,481.19 463.67,478.53 C467.85,474.35 470.30,465.85 470.41,455.17 C470.50,447.05 470.42,446.77 467.36,444.03 C462.65,439.82 448.66,436.70 434.00,436.59 L 422.50 436.50 L 420.50 440.50 C418.74,444.03 418.50,446.50 418.50,461.50 C418.50,484.87 420.34,488.42 432.00,487.61 C435.02,487.39 442.67,485.98 449.00,484.46 ZM 198.44 471.53 C201.71,467.11 205.42,461.70 206.68,459.50 C210.79,452.35 209.28,444.77 202.91,440.56 C200.73,439.12 197.35,435.70 195.38,432.97 C190.42,426.06 190.20,426.16 188.54,436.00 C188.21,437.92 188.26,449.60 188.64,461.95 C189.28,482.94 189.43,484.24 190.91,481.97 C191.79,480.64 195.17,475.94 198.44,471.53 ZM 635.60 440.98 C635.10,431.24 634.44,428.00 632.94,428.00 C632.47,428.00 630.50,430.09 628.54,432.65 C626.59,435.20 623.28,438.56 621.18,440.10 C616.58,443.48 615.00,446.65 615.00,452.46 C615.00,456.23 615.82,457.93 620.94,464.84 C624.20,469.24 628.59,475.43 630.69,478.59 L 634.50 484.34 L 635.30 467.42 C635.73,458.11 635.87,446.21 635.60,440.98 ZM 345.95 446.03 C348.23,444.80 348.54,443.55 350.52,427.00 C351.41,419.58 352.78,410.96 353.57,407.86 C355.58,399.93 355.37,395.58 352.50,386.00 C350.63,379.75 350.00,375.36 350.00,368.55 C350.00,356.00 349.51,355.42 338.29,354.77 C322.47,353.85 309.33,347.82 296.89,335.75 C293.06,332.04 289.49,329.00 288.96,329.00 C287.54,329.00 287.79,340.87 289.51,354.72 C292.89,382.06 296.53,394.53 305.50,409.46 C315.72,426.48 327.58,439.58 337.50,444.80 C342.05,447.20 343.39,447.40 345.95,446.03 ZM 488.00 444.88 C493.95,441.29 508.28,425.95 514.42,416.59 C525.83,399.23 530.97,383.96 534.96,355.58 C537.35,338.49 537.62,329.00 535.71,329.00 C535.00,329.00 532.41,331.07 529.96,333.59 C524.85,338.85 515.51,345.74 509.12,348.97 C502.14,352.48 496.13,354.02 486.74,354.68 C481.92,355.02 477.24,355.84 476.33,356.50 C475.04,357.45 474.53,360.34 473.95,370.10 C473.44,378.63 472.50,384.69 470.93,389.50 L 468.64 396.50 L 470.89 407.50 C472.13,413.55 473.63,423.89 474.24,430.47 C475.19,440.75 475.67,442.76 477.63,444.72 C480.47,447.56 483.49,447.61 488.00,444.88 ZM 218.78 444.25 C220.08,443.11 221.55,439.18 223.00,433.00 C224.22,427.77 227.17,418.63 229.56,412.67 C231.95,406.71 234.69,398.38 235.66,394.17 C237.72,385.18 237.98,370.30 236.18,364.25 C235.09,360.56 234.55,360.00 232.11,360.00 C225.48,360.00 215.80,371.43 212.00,383.75 C208.46,395.19 204.93,414.03 204.34,424.50 C203.82,433.87 203.94,434.72 206.17,437.98 C208.36,441.18 214.29,446.00 216.04,446.00 C216.44,446.00 217.68,445.21 218.78,444.25 ZM 614.79 442.76 C617.56,440.46 620.00,434.04 620.00,429.03 C620.00,419.16 614.54,388.98 611.22,380.50 C609.07,375.03 602.77,365.83 598.98,362.63 C594.63,358.97 589.77,359.02 588.05,362.75 C584.03,371.45 586.53,392.73 593.62,410.08 C595.74,415.26 598.84,424.89 600.51,431.48 C603.05,441.49 603.94,443.66 605.93,444.65 C608.37,445.87 611.96,445.10 614.79,442.76 ZM 237.72 432.16 C240.59,429.69 244.69,425.15 246.84,422.08 C250.91,416.24 259.00,401.09 259.00,399.31 C259.00,398.74 253.94,401.62 247.75,405.70 C240.23,410.66 235.75,414.35 234.24,416.81 C231.75,420.85 227.00,434.88 227.00,438.17 C227.00,440.18 227.06,440.19 229.75,438.44 C231.26,437.46 234.85,434.63 237.72,432.16 ZM 597.00 437.05 C597.00,433.15 591.94,419.21 589.09,415.29 C587.33,412.86 583.05,409.37 578.34,406.53 C574.03,403.93 569.49,400.87 568.25,399.73 C564.09,395.90 564.62,398.96 569.97,409.71 C574.55,418.94 576.54,421.68 584.47,429.70 C593.54,438.88 597.00,440.91 597.00,437.05 ZM 382.37 431.02 C392.19,429.39 400.88,427.51 401.68,426.85 C405.80,423.44 406.50,420.00 406.48,403.50 C406.46,389.99 406.17,386.98 404.64,384.14 C402.95,380.99 402.58,380.81 398.98,381.39 C390.42,382.76 374.46,391.08 366.27,398.45 C359.83,404.24 357.89,409.04 357.24,420.77 C356.80,428.74 356.98,430.32 358.52,432.02 C360.82,434.56 361.18,434.55 382.37,431.02 ZM 466.06 432.43 C467.63,430.53 467.65,416.13 466.09,410.33 C465.52,408.20 463.69,404.61 462.03,402.36 C456.24,394.48 436.84,383.12 426.29,381.43 C422.56,380.83 422.03,381.03 420.35,383.59 C418.84,385.90 418.44,388.87 418.15,399.95 C417.56,422.28 419.68,427.22 430.60,429.06 C433.84,429.60 441.23,430.89 447.00,431.93 C460.38,434.31 464.41,434.42 466.06,432.43 ZM 627.42 413.25 C630.91,397.67 630.55,380.45 626.40,363.50 C621.31,342.74 604.43,313.31 589.43,299.07 C582.37,292.35 579.00,290.48 579.00,293.25 C579.00,295.05 596.87,348.85 598.48,351.93 C599.23,353.34 601.94,356.52 604.51,359.00 C613.02,367.21 617.25,378.52 621.43,404.28 C622.85,412.96 624.00,420.28 624.00,420.53 C624.00,420.79 624.38,421.00 624.85,421.00 C625.31,421.00 626.47,417.51 627.42,413.25 ZM 201.95 406.79 C207.33,377.76 210.28,369.72 218.94,360.50 C221.52,357.75 224.35,354.38 225.23,353.00 C226.53,350.96 246.00,294.27 246.00,292.52 C246.00,292.23 245.27,292.00 244.37,292.00 C241.44,292.00 225.09,309.09 218.34,319.19 C205.48,338.46 198.25,355.36 195.42,372.79 C193.80,382.79 193.59,400.40 195.03,407.00 C196.91,415.67 198.26,419.96 198.96,419.52 C199.35,419.28 200.70,413.55 201.95,406.79 ZM 248.50 399.46 C259.46,392.08 268.28,380.31 272.08,368.00 C275.11,358.21 279.00,337.56 279.00,331.29 C279.00,324.25 274.52,301.96 271.92,296.09 C265.57,281.74 259.01,281.43 252.31,295.16 C248.68,302.62 239.81,328.56 237.57,338.31 C235.14,348.86 235.47,352.86 239.25,358.56 C242.25,363.09 242.52,364.18 242.83,372.98 C243.06,379.79 242.56,385.39 241.08,392.66 C239.94,398.24 239.00,403.11 239.00,403.47 C239.00,404.73 243.51,402.82 248.50,399.46 ZM 585.54 402.25 C583.99,398.26 582.01,389.38 580.96,381.69 C579.50,371.07 580.39,363.87 583.65,360.00 C588.73,353.96 588.85,349.66 584.44,331.92 C579.37,311.56 571.02,290.74 566.51,287.19 C562.84,284.30 560.91,284.43 557.80,287.75 C547.03,299.24 543.15,331.09 549.30,357.50 C553.14,374.01 557.49,382.68 566.41,391.57 C570.45,395.59 575.84,399.79 578.95,401.32 C585.33,404.46 586.45,404.62 585.54,402.25 ZM 375.00 384.49 C379.12,382.02 386.14,378.89 390.60,377.52 C400.72,374.41 403.40,372.31 405.55,365.85 C407.62,359.62 407.13,348.37 404.61,344.53 C402.84,341.83 399.09,341.21 394.80,342.91 C393.53,343.41 386.49,345.72 379.14,348.04 C359.90,354.11 355.99,358.11 356.01,371.72 C356.02,383.64 358.81,389.02 364.97,388.99 C366.36,388.98 370.88,386.96 375.00,384.49 ZM 464.69 386.75 C465.81,385.51 467.24,382.39 467.86,379.81 C470.96,367.05 467.33,356.73 458.12,352.08 C453.54,349.77 427.74,342.00 424.64,342.00 C419.86,342.00 418.50,345.22 418.50,356.54 C418.50,365.45 418.79,367.24 420.59,369.68 C423.33,373.36 428.83,376.42 435.36,377.88 C438.25,378.53 444.41,381.28 449.06,384.01 C458.44,389.51 461.68,390.08 464.69,386.75 ZM 350.26 347.52 C363.30,345.89 380.77,341.88 387.62,338.95 C401.78,332.88 407.04,322.36 406.97,300.20 C406.90,280.14 402.96,266.81 394.98,259.60 C392.80,257.63 383.02,252.01 373.26,247.11 C363.49,242.21 351.73,235.68 347.12,232.60 C339.69,227.64 338.15,227.00 333.62,226.98 L 328.50 226.96 L 319.00 237.22 C301.84,255.74 294.64,262.35 286.26,267.28 C277.59,272.38 272.66,277.19 273.38,279.86 C279.82,303.78 282.43,310.95 286.75,316.68 C299.44,333.51 312.61,343.51 327.27,347.46 C334.01,349.28 336.12,349.28 350.26,347.52 ZM 501.50 345.93 C513.77,341.37 527.12,330.48 536.59,317.28 C540.72,311.54 545.67,298.84 550.05,282.77 C551.62,276.99 549.50,274.04 539.37,267.92 C529.50,261.96 521.30,254.55 508.09,239.65 C493.72,223.45 492.16,223.28 473.16,235.72 C468.58,238.72 459.25,243.82 452.43,247.03 C445.60,250.25 436.92,254.90 433.12,257.36 C423.55,263.54 420.58,269.53 418.27,287.34 C415.42,309.21 418.73,325.01 427.90,333.29 C434.19,338.97 452.71,344.76 471.90,347.04 C477.18,347.67 481.73,348.42 482.00,348.70 C483.10,349.84 495.86,348.03 501.50,345.93 ZM 608.91 299.57 C610.51,290.86 610.26,270.20 608.45,261.41 C606.30,251.02 600.62,235.04 595.68,225.52 C588.35,211.39 575.75,201.65 557.64,196.10 C546.56,192.71 544.66,193.06 537.58,199.81 C534.24,203.00 526.00,208.96 519.29,213.06 C505.63,221.38 504.00,223.21 506.34,227.61 C509.04,232.67 535.14,258.55 542.00,262.95 C545.58,265.25 554.80,270.18 562.50,273.90 C577.68,281.25 586.09,287.37 598.97,300.41 C603.94,305.46 606.66,307.57 607.12,306.74 C607.50,306.06 608.30,302.83 608.91,299.57 ZM 226.42 299.19 C238.41,287.68 247.90,281.01 262.93,273.51 C282.89,263.55 288.37,259.52 303.59,243.66 C317.55,229.10 320.42,225.26 319.39,222.57 C318.77,220.95 311.38,215.96 300.80,210.00 C297.38,208.07 291.58,203.69 287.92,200.25 C280.04,192.86 278.18,192.55 266.18,196.58 C245.91,203.38 234.43,212.97 226.17,230.00 C220.49,241.72 216.70,253.85 214.31,267.89 C212.97,275.82 212.90,279.20 213.85,289.55 C214.93,301.25 216.17,307.00 217.62,307.00 C217.99,307.00 221.95,303.49 226.42,299.19 ZM 406.50 206.17 C406.50,164.11 406.33,159.15 404.82,156.85 C402.96,154.01 379.88,142.00 376.27,142.00 C374.93,142.00 371.35,144.68 366.92,149.01 C354.88,160.76 344.86,166.67 314.55,179.86 C304.68,184.16 296.13,188.43 295.55,189.35 C293.18,193.12 296.78,196.10 315.04,205.50 C324.92,210.58 337.39,217.98 343.68,222.50 C350.81,227.62 363.61,235.05 379.17,243.12 C400.33,254.10 403.70,255.57 405.00,254.34 C406.29,253.12 406.50,246.44 406.50,206.17 ZM 428.15 252.38 C431.64,250.40 441.34,245.49 449.70,241.48 C463.59,234.81 473.07,229.09 484.86,220.22 C491.17,215.49 504.32,207.89 513.00,203.98 C522.41,199.74 528.68,195.57 529.49,193.04 C530.53,189.75 528.49,187.63 521.34,184.57 C497.89,174.53 486.44,169.17 478.50,164.48 C469.40,159.12 457.81,149.80 453.96,144.75 C451.03,140.93 448.23,141.23 438.11,146.44 C433.38,148.89 427.39,151.84 424.81,153.00 C417.42,156.34 417.50,155.74 417.50,207.00 C417.50,251.40 417.82,256.00 420.94,256.00 C421.42,256.00 424.66,254.37 428.15,252.38 Z" fill="rgb(254,254,254)"/>
</g>
</svg>